<svg width="161" height="48" viewBox="0 0 161 48" fill="none" aria-label="app store download button" xmlns="http://www.w3.org/2000/svg"><path d="M160.5 43.1796C160.5 45.8349 158.448 48 155.888 48H5.11219C2.57157 48 0.5 45.8553 0.5 43.1796V4.82043C0.5 2.16511 2.57157 0 5.11219 0H155.888C158.428 0 160.5 2.16511 160.5 4.82043V43.1796Z" fill="white"></path><path d="M36.0555 22.2797C36.0169 18.4147 39.1795 16.5212 39.3337 16.4431C37.5403 13.8079 34.7634 13.437 33.7799 13.4175C31.4466 13.1638 29.1903 14.823 27.9947 14.823C26.7798 14.823 24.9478 13.437 22.9808 13.4761C20.4353 13.5151 18.0634 14.9986 16.7714 17.3215C14.0909 22.0259 16.0964 28.9555 18.6612 32.762C19.9532 34.6359 21.4574 36.705 23.4244 36.627C25.3528 36.5489 26.0663 35.3777 28.3997 35.3777C30.6945 35.3777 31.3887 36.6269 33.3942 36.5684C35.4576 36.5293 36.769 34.6945 38.0031 32.8205C39.488 30.6928 40.0858 28.5847 40.1051 28.4675C40.0665 28.448 36.094 26.9059 36.0555 22.2797Z" fill="#231B22"></path><path d="M32.2563 10.8996C33.2976 9.59171 34.0111 7.79585 33.799 6C32.2948 6.05856 30.4243 7.05409 29.3444 8.34242C28.3802 9.47458 27.5317 11.329 27.7631 13.0663C29.4601 13.1834 31.1764 12.1879 32.2563 10.8996Z" fill="#231B22"></path><path d="M63.9784 36.3342H61.2786L59.813 31.6493H54.6642L53.2564 36.3342H50.6338L55.7055 20.3667H58.8488L63.9784 36.3342ZM59.3502 29.6778L58.0196 25.5005C57.8846 25.0711 57.6146 24.0755 57.2289 22.4944H57.1904C57.0361 23.1776 56.7854 24.1731 56.4383 25.5005L55.127 29.6778H59.3502Z" fill="#231B22"></path><path d="M77.0144 30.4391C77.0144 32.3911 76.4937 33.9527 75.4331 35.0848C74.4882 36.0999 73.3118 36.6074 71.9234 36.6074C70.4192 36.6074 69.3393 36.0609 68.6837 34.9677V41.019H66.1575V28.6237C66.1575 27.3939 66.1189 26.1251 66.061 24.8368H68.2787L68.4137 26.6717H68.4523C69.3008 25.3053 70.5735 24.6025 72.2898 24.6025C73.6397 24.6025 74.7582 25.1296 75.6452 26.2227C76.5516 27.2768 77.0144 28.6822 77.0144 30.4391ZM74.4303 30.5367C74.4303 29.424 74.1796 28.487 73.6782 27.7648C73.1383 27.0035 72.4055 26.6326 71.4799 26.6326C70.8628 26.6326 70.2842 26.8474 69.7829 27.2573C69.2815 27.6867 68.9344 28.2333 68.7801 28.897C68.703 29.2093 68.6644 29.4631 68.6644 29.6778V31.5907C68.6644 32.4301 68.9151 33.1328 69.4165 33.7184C69.9178 34.304 70.5928 34.5773 71.4027 34.5773C72.3476 34.5773 73.0997 34.2064 73.6204 33.4647C74.1603 32.7229 74.4303 31.7469 74.4303 30.5367Z" fill="#231B22"></path><path d="M90.0889 30.4391C90.0889 32.3911 89.5682 33.9527 88.5076 35.0848C87.5626 36.0999 86.3863 36.6074 84.9979 36.6074C83.4937 36.6074 82.4138 36.0609 81.7581 34.9677V41.019H79.2319V28.6237C79.2319 27.3939 79.1934 26.1251 79.1355 24.8368H81.3532L81.4882 26.6717H81.5267C82.3752 25.3053 83.648 24.6025 85.3643 24.6025C86.7141 24.6025 87.8326 25.1296 88.7197 26.2227C89.6453 27.2768 90.0889 28.6822 90.0889 30.4391ZM87.5241 30.5367C87.5241 29.424 87.2734 28.487 86.772 27.7648C86.232 27.0035 85.4992 26.6326 84.5736 26.6326C83.9565 26.6326 83.378 26.8474 82.8766 27.2573C82.3752 27.6867 82.0474 28.2333 81.8738 28.897C81.7967 29.2093 81.7581 29.4631 81.7581 29.6778V31.5907C81.7581 32.4301 82.0088 33.1328 82.5102 33.7184C83.0116 34.2845 83.6865 34.5773 84.4965 34.5773C85.4414 34.5773 86.1935 34.2064 86.7141 33.4647C87.2541 32.7229 87.5241 31.7469 87.5241 30.5367Z" fill="#231B22"></path><path d="M104.726 31.8639C104.726 33.2304 104.263 34.3235 103.318 35.1824C102.296 36.1193 100.85 36.5878 99.0177 36.5878C97.3207 36.5878 95.9515 36.256 94.9294 35.5923L95.508 33.4646C96.6072 34.1283 97.8413 34.4601 99.1527 34.4601C100.098 34.4601 100.85 34.2454 101.37 33.816C101.891 33.3865 102.161 32.8009 102.161 32.0787C102.161 31.4345 101.949 30.8879 101.505 30.439C101.062 29.99 100.348 29.5801 99.3262 29.2092C96.5686 28.1746 95.1801 26.6325 95.1801 24.6415C95.1801 23.3336 95.6622 22.26 96.6457 21.4207C97.6292 20.5813 98.9212 20.1714 100.522 20.1714C101.949 20.1714 103.164 20.4251 104.109 20.9327L103.472 23.0213C102.585 22.5333 101.563 22.2796 100.445 22.2796C99.5576 22.2796 98.8441 22.4943 98.362 22.9432C97.9378 23.3336 97.7256 23.8216 97.7256 24.3877C97.7256 25.0124 97.9763 25.5394 98.4584 25.9493C98.8827 26.3202 99.6348 26.7301 100.753 27.1791C102.103 27.7257 103.106 28.3698 103.742 29.1116C104.417 29.8339 104.726 30.7513 104.726 31.8639Z" fill="#231B22"></path><path d="M113.114 26.7497H110.318V32.3325C110.318 33.7574 110.8 34.4602 111.783 34.4602C112.227 34.4602 112.613 34.4211 112.902 34.343L112.979 36.2951C112.478 36.4903 111.822 36.5879 111.012 36.5879C110.009 36.5879 109.238 36.2755 108.679 35.6704C108.119 35.0458 107.83 34.0112 107.83 32.5667V26.7497H106.172V24.8367H107.83V22.7286L110.318 21.9673V24.8367H113.114C113.114 24.8172 113.114 26.7497 113.114 26.7497Z" fill="#231B22"></path><path d="M125.668 30.4976C125.668 32.2739 125.167 33.7184 124.164 34.8506C123.122 36.0218 121.734 36.6074 119.998 36.6074C118.321 36.6074 116.99 36.0413 116.007 34.9287C115.023 33.816 114.522 32.3911 114.522 30.6928C114.522 28.9165 115.042 27.4525 116.064 26.3008C117.087 25.1686 118.475 24.6025 120.191 24.6025C121.869 24.6025 123.2 25.1686 124.222 26.2813C125.167 27.3549 125.668 28.7603 125.668 30.4976ZM123.045 30.5562C123.045 29.5021 122.814 28.6042 122.37 27.8429C121.85 26.9254 121.078 26.4765 120.095 26.4765C119.073 26.4765 118.301 26.9254 117.781 27.8429C117.337 28.6042 117.106 29.5216 117.106 30.6147C117.106 31.6688 117.337 32.5863 117.781 33.328C118.321 34.2455 119.092 34.6944 120.076 34.6944C121.04 34.6944 121.792 34.226 122.351 33.3085C122.795 32.5082 123.045 31.6103 123.045 30.5562Z" fill="#231B22"></path><path d="M133.883 27.0816C133.632 27.0425 133.362 27.0035 133.092 27.0035C132.205 27.0035 131.511 27.3353 131.029 28.0186C130.605 28.6237 130.392 29.385 130.392 30.3024V36.3537H127.866V28.4675C127.866 27.1401 127.847 25.9299 127.789 24.8368H129.987L130.084 27.0425H130.161C130.431 26.2813 130.855 25.6761 131.434 25.2077C131.993 24.7977 132.61 24.583 133.266 24.583C133.497 24.583 133.709 24.6025 133.902 24.6221L133.883 27.0816Z" fill="#231B22"></path><path d="M145.183 30.0291C145.183 30.4781 145.145 30.8685 145.087 31.1808H137.508C137.528 32.3129 137.913 33.1914 138.608 33.7965C139.244 34.3235 140.073 34.5968 141.095 34.5968C142.214 34.5968 143.236 34.4211 144.161 34.0502L144.566 35.8266C143.486 36.2951 142.214 36.5293 140.748 36.5293C138.993 36.5293 137.605 36.0022 136.583 34.9482C135.58 33.8941 135.079 32.4886 135.079 30.7123C135.079 28.975 135.541 27.5305 136.486 26.3788C137.47 25.1491 138.8 24.5244 140.459 24.5244C142.098 24.5244 143.332 25.1491 144.181 26.3788C144.856 27.3939 145.183 28.6041 145.183 30.0291ZM142.773 29.3654C142.792 28.6041 142.619 27.96 142.291 27.3939C141.847 26.6716 141.172 26.3203 140.285 26.3203C139.456 26.3203 138.781 26.6716 138.28 27.3548C137.856 27.9014 137.605 28.5651 137.528 29.3459L142.773 29.3654Z" fill="#231B22"></path><path d="M58.1345 14.6474H56.8039L56.0711 12.344H53.5449L52.8506 14.6474H51.5586L54.0462 6.80029H55.589L58.1345 14.6474ZM55.8782 11.3875L55.2226 9.33791C55.1454 9.12319 55.0297 8.63518 54.8369 7.85438H54.8176C54.7405 8.18622 54.6248 8.67423 54.4512 9.33791L53.8148 11.3875H55.8782Z" fill="#231B22"></path><path d="M64.3829 8.98633L62.2617 14.6472H61.0468L59.0027 8.98633H60.3333L61.2975 11.9729C61.4518 12.4804 61.5868 12.9489 61.7025 13.3979H61.741C61.8374 12.988 61.9724 12.5195 62.146 11.9729L63.0909 8.98633C63.0716 8.98633 64.3829 8.98633 64.3829 8.98633Z" fill="#231B22"></path><path d="M68.8952 14.6471L68.7988 14.003H68.7602C68.3745 14.53 67.8346 14.7838 67.1211 14.7838C66.1183 14.7838 65.4048 14.081 65.4048 13.1246C65.4048 11.7191 66.6004 10.9969 68.6638 10.9969V10.8993C68.6638 10.1575 68.2781 9.78661 67.5067 9.78661C66.9475 9.78661 66.4654 9.92325 66.0412 10.2161L65.7905 9.39621C66.3111 9.06436 66.9475 8.9082 67.7189 8.9082C69.1845 8.9082 69.9173 9.68901 69.9173 11.2506V13.3393C69.9173 13.9054 69.9365 14.3543 69.9944 14.6862L68.8952 14.6471ZM68.7216 11.8362C67.3332 11.8362 66.6583 12.1681 66.6583 12.9684C66.6583 13.554 67.0246 13.8468 67.5067 13.8468C68.1431 13.8468 68.7216 13.3588 68.7216 12.6951C68.7216 12.7146 68.7216 11.8362 68.7216 11.8362Z" fill="#231B22"></path><path d="M72.694 8.04944C72.289 8.04944 71.9612 7.7176 71.9612 7.28815C71.9612 6.85871 72.289 6.54639 72.7133 6.54639C73.1375 6.54639 73.4846 6.85871 73.4653 7.28815C73.4846 7.75664 73.1568 8.04944 72.694 8.04944ZM73.3303 14.6472H72.0962V8.9864H73.3303V14.6472Z" fill="#231B22"></path><path d="M76.7823 14.6472H75.5481V6.39014H76.7823V14.6472Z" fill="#231B22"></path><path d="M82.0659 14.6471L81.9694 14.003H81.9309C81.5452 14.53 81.0052 14.7838 80.2917 14.7838C79.2889 14.7838 78.5754 14.081 78.5754 13.1246C78.5754 11.7191 79.7711 10.9969 81.8344 10.9969V10.8993C81.8344 10.1575 81.4488 9.78661 80.6774 9.78661C80.1182 9.78661 79.6361 9.92325 79.2118 10.2161L78.9611 9.39621C79.4818 9.06436 80.1182 8.9082 80.8895 8.9082C82.3551 8.9082 83.0879 9.68901 83.0879 11.2506V13.3393C83.0879 13.9054 83.1072 14.3543 83.1651 14.6862H82.0659V14.6471ZM81.8923 11.8362C80.5038 11.8362 79.8289 12.1681 79.8289 12.9684C79.8289 13.554 80.1953 13.8468 80.6774 13.8468C81.3138 13.8468 81.8923 13.3588 81.8923 12.6951V11.8362Z" fill="#231B22"></path><path d="M88.1404 14.7838C87.3498 14.7838 86.752 14.452 86.3856 13.7883H86.3663L86.2891 14.6667H85.2285C85.2671 14.2177 85.2671 13.6907 85.2671 13.1441V6.40967H86.5205V9.82569H86.5398C86.9062 9.20105 87.504 8.88872 88.314 8.88872C89.6639 8.88872 90.6088 10.0599 90.6088 11.7582C90.6088 13.4955 89.5674 14.7838 88.1404 14.7838ZM87.8897 9.86473C87.1762 9.86473 86.5205 10.4894 86.5205 11.3678V12.3633C86.5205 13.1441 87.0991 13.7883 87.8704 13.7883C88.7961 13.7883 89.3553 13.027 89.3553 11.7972C89.3553 10.6455 88.7768 9.86473 87.8897 9.86473Z" fill="#231B22"></path><path d="M93.6944 14.6472H92.4602V6.39014H93.6944V14.6472Z" fill="#231B22"></path><path d="M100.463 12.129H96.7413C96.7606 13.2026 97.4741 13.8077 98.4961 13.8077C99.0554 13.8077 99.5567 13.7101 100 13.5345L100.193 14.4129C99.6724 14.6471 99.0361 14.7642 98.3226 14.7642C96.5677 14.7642 95.5457 13.6516 95.5457 11.9143C95.5457 10.177 96.6063 8.86914 98.1876 8.86914C99.6146 8.86914 100.521 9.94275 100.521 11.5629C100.502 11.7776 100.502 11.9728 100.463 12.129ZM99.3253 11.2311C99.3253 10.3527 98.8818 9.74755 98.0912 9.74755C97.3776 9.74755 96.8184 10.3722 96.7413 11.2311H99.3253Z" fill="#231B22"></path><path d="M108.003 14.7838C106.364 14.7838 105.303 13.554 105.303 11.8753C105.303 10.1184 106.383 8.88867 108.099 8.88867C109.7 8.88867 110.799 10.0599 110.799 11.7972C110.78 13.554 109.661 14.7838 108.003 14.7838ZM108.041 9.7866C107.135 9.7866 106.576 10.6455 106.576 11.8167C106.576 12.9879 107.154 13.8273 108.041 13.8273C108.928 13.8273 109.507 12.9098 109.507 11.7972C109.488 10.665 108.909 9.7866 108.041 9.7866Z" fill="#231B22"></path><path d="M117.452 14.6471H116.218V11.3872C116.218 10.3917 115.832 9.88419 115.1 9.88419C114.367 9.88419 113.846 10.5284 113.846 11.2701V14.6471H112.612V10.6064C112.612 10.0989 112.593 9.57187 112.573 8.98626H113.673L113.731 9.86467H113.769C114.097 9.25954 114.791 8.86914 115.543 8.86914C116.72 8.86914 117.491 9.78659 117.491 11.2506L117.452 14.6471Z" fill="#231B22"></path><path d="M125.59 9.94299H124.221V12.6953C124.221 13.3981 124.452 13.7494 124.953 13.7494C125.166 13.7494 125.358 13.7299 125.513 13.6909L125.551 14.6473C125.301 14.7449 124.992 14.784 124.587 14.784C123.604 14.784 123.025 14.2374 123.025 12.8125V9.96251H122.215V8.9865H123.025V7.95194L124.24 7.58105V8.9865H125.609V9.94299H125.59Z" fill="#231B22"></path><path d="M132.166 14.6472H130.912V11.4263C130.912 10.4113 130.527 9.90376 129.794 9.90376C129.157 9.90376 128.56 10.3527 128.56 11.2507V14.6472H127.306V6.39014H128.56V9.78664H128.579C128.965 9.162 129.543 8.86919 130.257 8.86919C131.433 8.86919 132.166 9.80616 132.166 11.2897V14.6472Z" fill="#231B22"></path><path d="M138.53 12.129H134.789C134.808 13.2026 135.522 13.8077 136.544 13.8077C137.103 13.8077 137.605 13.7101 138.048 13.5345L138.241 14.4129C137.72 14.6471 137.084 14.7642 136.37 14.7642C134.616 14.7642 133.594 13.6516 133.594 11.9143C133.594 10.177 134.654 8.86914 136.235 8.86914C137.662 8.86914 138.569 9.94275 138.569 11.5629C138.569 11.7776 138.55 11.9728 138.53 12.129ZM137.392 11.2311C137.392 10.3527 136.949 9.74755 136.158 9.74755C135.445 9.74755 134.886 10.3722 134.808 11.2311H137.392Z" fill="#231B22"></path></svg>