<svg width="1024" height="1024" viewBox="0 0 1024 1024" fill="none"
    xmlns="http://www.w3.org/2000/svg">
    <path
        d="M409.202 675.936C518.083 675.936 609.638 675.4 632.448 653.892L642.155 636.97L652.252 604.32L650.333 592.656L650.333 578.076L641.567 557.665L589.611 466.599L543.02 395.191L579.496 376.925L683.913 548.917C683.913 548.917 686.772 551.833 692.49 572.244C698.208 592.656 690.623 563.497 695.646 604.32L689.631 630.564L683.913 649.743L678.785 660.454L670.242 672.503L660.288 680.687L650.333 688.872L642.155 697.631L635.307 700.547L618.153 709.295L603.857 714.789L582.136 714.789L481.49 714.789L431.168 714.789L380.845 714.789C380.845 714.789 357.236 707.777 352.253 706.379C347.27 704.981 332.239 697.631 332.239 697.631L312.226 685.967C297.585 669.532 296.978 668.145 284.354 649.743L269.339 618.9C269.339 618.9 263.688 576.077 269.339 592.656C274.989 609.236 303.648 636.396 303.648 636.396L343.676 659.723L372.267 671.387L409.202 675.936Z"
        fill="#C3FF00" stroke="black" stroke-opacity="0.1" />
    <path
        d="M439.363 303.865C388.34 382.029 329.709 498.649 326.575 527.633L330.379 545.662L350.742 580.809L362.937 590.394L372.223 594.959L387.89 599.072L497.483 599.075L623.87 599.075L606.715 641.516L379.271 641.516L346.489 630.789L326.461 619.149L318.185 610.596L305.539 594.501L290.547 562.892L285.736 548.856L284.842 535.847L283.947 522.839L284.507 512.341L287.528 500.359L291.556 484.384L300.788 461.436L406.575 286.526C406.575 286.526 431.308 261.301 446.077 252.401L458.385 244.984L481.619 239.231C503.21 236.374 502.601 238.984 524.622 238.938L548.118 245.101L569.602 259.256L525.964 258.451L487.142 271.692L462.526 286.526L439.363 303.865Z"
        fill="#C3FF00" stroke="black" stroke-opacity="0.1" />
    <path
        d="M714.928 552.428C674.856 468.159 606.162 357.739 583.264 340.304L566.09 334.493H526.018L511.707 340.304L503.12 346.116L491.665 357.739L435.851 453.63L391.485 526.275L360 500.123L460.186 328.681L485.946 305.435L505.982 293.812L517.426 290.906L537.467 288L571.814 290.906L586.126 293.812L597.575 299.623L609.024 305.435L617.611 311.246L626.198 319.964L637.647 331.587L660.539 357.739L749.276 537.899C749.276 537.899 755 566.957 755 584.391V598.92L748.03 622.167C739.449 642.507 737.553 640.651 726.377 659.942L709.204 677.377L686.3 689L709.204 651.225L717.785 610.543V581.486L714.928 552.428Z"
        fill="#C3FF00" stroke="black" stroke-opacity="0.1" />
    <defs>
        <radialGradient id="paint0_radial_333_23" cx="0" cy="0" r="1" gradientUnits="userSpaceOnUse"
            gradientTransform="translate(713 76) rotate(-1.46185) scale(905.215 800.535)">
            <stop stop-color="#C3FF00" />
            <stop offset="1" stop-color="#C3FF00" stop-opacity="0" />
        </radialGradient>
    </defs>
</svg>