<svg width="161" height="48" viewBox="0 0 161 48" fill="none" aria-label="google play download button" xmlns="http://www.w3.org/2000/svg"><path d="M154.579 48H6.42056C3.15821 48 0.5 45.3075 0.5 42.0031V5.99694C0.5 2.6925 3.15821 0 6.42056 0H154.579C157.842 0 160.5 2.6925 160.5 5.99694V42.0031C160.5 45.3075 157.818 48 154.579 48Z" fill="white"></path><path d="M55.894 12.0611C55.894 13.0642 55.604 13.8715 55.024 14.4587C54.3474 15.1681 53.4774 15.5351 52.4141 15.5351C51.3992 15.5351 50.505 15.1681 49.8042 14.4587C49.0793 13.7247 48.7168 12.844 48.7168 11.7675C48.7168 10.6911 49.0793 9.81035 49.8042 9.10087C50.5292 8.39139 51.3992 8.02441 52.4141 8.02441C52.9216 8.02441 53.4049 8.12227 53.8641 8.31799C54.3232 8.51371 54.7099 8.78282 54.9757 9.12533L54.3474 9.76141C53.8641 9.19872 53.2358 8.90514 52.39 8.90514C51.6408 8.90514 50.9884 9.17426 50.4567 9.71249C49.9009 10.2507 49.6351 10.9357 49.6351 11.792C49.6351 12.6483 49.9009 13.3333 50.4567 13.8715C51.0125 14.4097 51.665 14.6788 52.39 14.6788C53.1874 14.6788 53.8399 14.4097 54.3715 13.8715C54.7099 13.529 54.9273 13.0397 54.9757 12.4036H52.39V11.5473H55.8215C55.894 11.6941 55.894 11.8654 55.894 12.0611Z" fill="#231B22" stroke="#231B22" stroke-width="0.199309" stroke-miterlimit="10"></path><path d="M61.3547 9.05217H58.1165V11.3274H61.0406V12.1837H58.1165V14.4589H61.3547V15.3396H57.1982V8.14697H61.3547C61.3547 8.17144 61.3547 9.05217 61.3547 9.05217Z" fill="#231B22" stroke="#231B22" stroke-width="0.199309" stroke-miterlimit="10"></path><path d="M65.2202 15.3641H64.3019V9.05212H62.3203V8.17139H67.2017V9.05212H65.2202V15.3641Z" fill="#231B22" stroke="#231B22" stroke-width="0.199309" stroke-miterlimit="10"></path><path d="M70.7295 15.3641V8.17139H71.6478V15.3641H70.7295Z" fill="#231B22" stroke="#231B22" stroke-width="0.199309" stroke-miterlimit="10"></path><path d="M75.7094 15.3641H74.7911V9.05212H72.8096V8.17139H77.691V9.05212H75.7094V15.3641Z" fill="#231B22" stroke="#231B22" stroke-width="0.199309" stroke-miterlimit="10"></path><path d="M86.9464 14.4342C86.2456 15.1682 85.3756 15.5352 84.3365 15.5352C83.2974 15.5352 82.4274 15.1682 81.7266 14.4342C81.0258 13.7003 80.6875 12.8196 80.6875 11.7676C80.6875 10.7156 81.0258 9.8104 81.7266 9.10092C82.4274 8.36697 83.2974 8 84.3365 8C85.3756 8 86.2456 8.36697 86.9464 9.10092C87.6472 9.83486 88.0097 10.7156 88.0097 11.7676C87.9855 12.8196 87.6472 13.7003 86.9464 14.4342ZM82.4033 13.8226C82.9349 14.3609 83.5632 14.63 84.3365 14.63C85.0856 14.63 85.7381 14.3609 86.2697 13.8226C86.8014 13.2844 87.0672 12.5994 87.0672 11.7431C87.0672 10.8868 86.8014 10.2018 86.2697 9.66361C85.7381 9.12538 85.1098 8.85627 84.3365 8.85627C83.5632 8.85627 82.9349 9.12538 82.4033 9.66361C81.8716 10.2018 81.6058 10.8868 81.6058 11.7431C81.6058 12.5994 81.8716 13.2844 82.4033 13.8226Z" fill="#231B22" stroke="#231B22" stroke-width="0.199309" stroke-miterlimit="10"></path><path d="M89.2656 15.3641V8.17139H90.3772L93.8329 13.7738H93.8812L93.8329 12.3793V8.17139H94.7512V15.3641H93.8087L90.1839 9.49249H90.1356L90.1839 10.887V15.3641H89.2656Z" fill="#231B22" stroke="#231B22" stroke-width="0.199309" stroke-miterlimit="10"></path><path d="M80.4451 25.8594C77.6661 25.8594 75.3945 28.0123 75.3945 30.9726C75.3945 33.9083 77.6661 36.0857 80.4451 36.0857C83.2241 36.0857 85.5199 33.9083 85.5199 30.9726C85.5199 28.0123 83.2483 25.8594 80.4451 25.8594ZM80.4451 34.0551C78.9227 34.0551 77.5936 32.783 77.5936 30.9726C77.5936 29.1377 78.8985 27.89 80.4451 27.89C81.9917 27.89 83.2966 29.1377 83.2966 30.9726C83.2966 32.783 81.9675 34.0551 80.4451 34.0551ZM69.4256 25.8594C66.6466 25.8594 64.375 28.0123 64.375 30.9726C64.375 33.9083 66.6466 36.0857 69.4256 36.0857C72.2047 36.0857 74.4762 33.9083 74.4762 30.9726C74.4762 28.0123 72.2047 25.8594 69.4256 25.8594ZM69.4256 34.0551C67.9032 34.0551 66.5741 32.783 66.5741 30.9726C66.5741 29.1377 67.9032 27.89 69.4256 27.89C70.948 27.89 72.2771 29.1377 72.2771 30.9726C72.253 32.783 70.948 34.0551 69.4256 34.0551ZM56.2796 27.4252V29.6025H61.4027C61.2577 30.8258 60.8468 31.7065 60.2427 32.3181C59.4936 33.0765 58.3336 33.9083 56.2796 33.9083C53.138 33.9083 50.6732 31.3395 50.6732 28.1591C50.6732 24.9787 53.138 22.4099 56.2796 22.4099C57.9711 22.4099 59.2278 23.0949 60.146 23.9512L61.6443 22.4343C60.3635 21.1866 58.672 20.257 56.2796 20.257C51.9539 20.257 48.3291 23.8044 48.3291 28.1836C48.3291 32.5628 51.9539 36.1102 56.2796 36.1102C58.6236 36.1102 60.3635 35.3273 61.741 33.8839C63.1426 32.4649 63.6017 30.4343 63.6017 28.8197C63.6017 28.3059 63.5534 27.8411 63.4809 27.4741C63.4809 27.4252 56.2796 27.4252 56.2796 27.4252ZM109.975 29.1132C109.565 27.9634 108.284 25.8594 105.65 25.8594C103.064 25.8594 100.889 27.9389 100.889 30.9726C100.889 33.835 103.016 36.0857 105.891 36.0857C108.211 36.0857 109.54 34.6668 110.096 33.835L108.38 32.6851C107.8 33.5414 107.027 34.1041 105.891 34.1041C104.78 34.1041 103.958 33.5903 103.451 32.5628L110.193 29.7493C110.217 29.6759 109.975 29.1132 109.975 29.1132ZM103.112 30.8013C103.064 28.8441 104.611 27.8166 105.746 27.8166C106.616 27.8166 107.366 28.257 107.631 28.8931C107.607 28.9175 103.112 30.8013 103.112 30.8013ZM97.6268 35.7677H99.85V20.7707H97.6268V35.7677ZM94.002 26.9848H93.9295C93.422 26.3976 92.4795 25.8594 91.2713 25.8594C88.758 25.8594 86.4382 28.1102 86.4382 30.9726C86.4382 33.835 88.758 36.0613 91.2713 36.0613C92.4795 36.0613 93.422 35.523 93.9295 34.9114H94.002V35.6454C94.002 37.6025 92.9628 38.6545 91.3196 38.6545C89.9663 38.6545 89.1205 37.6759 88.7822 36.8441L86.849 37.6515C87.4048 38.997 88.8789 40.6606 91.3196 40.6606C93.9295 40.6606 96.1044 39.1194 96.1044 35.3518V26.1775H94.002V26.9848ZM91.4646 34.0551C89.9422 34.0551 88.6614 32.7585 88.6614 30.9726C88.6614 29.1622 89.9422 27.8655 91.4646 27.8655C92.9628 27.8655 94.147 29.1866 94.147 30.9726C94.147 32.7585 92.9628 34.0551 91.4646 34.0551ZM120.367 20.7463H115.074V35.7432H117.273V30.0674H120.367C122.831 30.0674 125.224 28.257 125.224 25.4191C125.224 22.5567 122.807 20.7463 120.367 20.7463ZM120.415 27.9879H117.273V22.8502H120.415C122.058 22.8502 123.001 24.2447 123.001 25.4191C123.001 26.5689 122.058 27.9879 120.415 27.9879ZM134.093 25.835C132.498 25.835 130.83 26.5444 130.154 28.1346L132.111 28.9665C132.522 28.1346 133.319 27.8655 134.141 27.8655C135.277 27.8655 136.461 28.575 136.461 29.7983V29.945C136.05 29.7004 135.204 29.3579 134.141 29.3579C132.039 29.3579 129.864 30.5322 129.864 32.734C129.864 34.7402 131.604 36.0368 133.537 36.0368C135.035 36.0368 135.857 35.3518 136.364 34.5689H136.437V35.7187H138.563V29.9695C138.587 27.3273 136.63 25.835 134.093 25.835ZM133.827 34.0551C133.102 34.0551 132.087 33.6882 132.087 32.783C132.087 31.6331 133.343 31.1683 134.431 31.1683C135.398 31.1683 135.857 31.3885 136.461 31.682C136.267 33.0765 135.108 34.0551 133.827 34.0551ZM146.369 26.153L143.831 32.6606H143.759L141.125 26.153H138.732L142.671 35.2294L140.424 40.2937H142.744L148.834 26.153H146.369ZM126.432 35.7677H128.655V20.7707H126.432V35.7677Z" fill="#231B22"></path><path d="M12 37.0398C12 37.468 12.0738 37.8031 12.1906 38.0511L26.3115 23.7554L12.2057 9.4749C12.0827 9.73093 12 10.0725 12 10.4955V37.0398Z" fill="#231B22" stroke="white"></path><path d="M31.8324 19.2463L27.3779 23.7559L31.8337 28.2892L37.4198 25.0845C37.4202 25.0843 37.4205 25.0841 37.4209 25.0839C38.1479 24.6615 38.4033 24.1714 38.4033 23.7799C38.4033 23.3884 38.1477 22.8981 37.4203 22.4756C37.4201 22.4755 37.42 22.4754 37.4198 22.4753L31.8324 19.2463Z" fill="#231B22" stroke="white"></path><path d="M31.0361 28.7096L26.8452 24.4668L12.8599 38.6254C13.2116 38.7426 13.6897 38.6939 14.2946 38.3439L14.2956 38.3434L31.0361 28.7096Z" fill="#231B22" stroke="white"></path><path d="M26.8217 23.0447L31.0342 18.8006L14.2714 9.16748L14.2702 9.16676C13.6653 8.81684 13.1872 8.76813 12.8355 8.88532L26.8217 23.0447Z" fill="#231B22" stroke="white"></path></svg>